<svg width="1440" height="5439" viewBox="0 0 1440 5439" fill="none" xmlns="http://www.w3.org/2000/svg">
<g clip-path="url(#clip0)">
<g opacity="0.5">
<path d="M229.194 192.511L202.34 149.021L160.445 174.89C146.639 183.415 139.932 174.683 131.62 161.222L-43.8897 -123.018L-98.6386 -89.2126C-88.2314 -67.0331 -94.6571 -38.0355 -114.652 -25.6891L-157.023 0.473696L-131.768 41.3753L-69.4016 2.8661L57.1957 207.892C65.188 220.835 68.0859 231.919 54.7558 240.15L8.57625 268.664L35.4302 312.154L229.194 192.511Z" fill="white"/>
<path d="M1724.83 88.21L1690.24 51.5508L1665.53 74.8685C1653.58 86.1387 1643.15 86.6367 1632.66 75.5153L1470.6 -96.2477C1460.11 -107.369 1461.21 -117.753 1473.15 -129.023L1497.87 -152.341L1463.28 -189L1296.87 -31.9942C1215.73 44.5655 1205.15 105.15 1248.29 150.871C1276.27 180.528 1321.67 189.86 1375.05 158.963C1353.8 200.809 1361.97 236.7 1396.17 272.947L1417.93 296.014C1426.87 305.488 1424.31 311.022 1420.19 314.908C1417.3 317.628 1410.88 318.243 1405.05 312.064L1366.57 271.286L1333.21 302.765L1377.12 349.309C1398.89 372.376 1436.58 371.068 1469.12 340.367C1510.31 301.504 1508.46 254.98 1480.48 225.323L1461.05 204.728C1433.84 175.895 1417.85 147.388 1445.03 121.738L1498.17 71.6053L1563.46 140.805C1573.95 151.926 1572.85 162.31 1560.9 173.58L1536.19 196.898L1570.78 233.557L1724.83 88.21ZM1463.97 35.3579L1414.13 82.3819C1380.76 113.861 1347.48 114.896 1321.06 86.8869C1298.13 62.5847 1302.22 32.2576 1341.35 -4.66199L1386.24 -47.0224L1463.97 35.3579Z" fill="white"/>
<path d="M1749.83 3075.21L1715.24 3038.55L1690.53 3061.87C1678.58 3073.14 1668.15 3073.64 1657.66 3062.52L1495.6 2890.75C1485.11 2879.63 1486.21 2869.25 1498.15 2857.98L1522.87 2834.66L1488.28 2798L1321.87 2955.01C1240.73 3031.57 1230.15 3092.15 1273.29 3137.87C1301.27 3167.53 1346.67 3176.86 1400.05 3145.96C1378.8 3187.81 1386.97 3223.7 1421.17 3259.95L1442.93 3283.01C1451.87 3292.49 1449.31 3298.02 1445.19 3301.91C1442.3 3304.63 1435.88 3305.24 1430.05 3299.06L1391.57 3258.29L1358.21 3289.76L1402.12 3336.31C1423.89 3359.38 1461.58 3358.07 1494.12 3327.37C1535.31 3288.5 1533.46 3241.98 1505.48 3212.32L1486.05 3191.73C1458.84 3162.89 1442.85 3134.39 1470.03 3108.74L1523.17 3058.61L1588.46 3127.8C1598.95 3138.93 1597.85 3149.31 1585.9 3160.58L1561.19 3183.9L1595.78 3220.56L1749.83 3075.21ZM1488.97 3022.36L1439.13 3069.38C1405.76 3100.86 1372.48 3101.9 1346.06 3073.89C1323.13 3049.58 1327.22 3019.26 1366.35 2982.34L1411.24 2939.98L1488.97 3022.36Z" fill="white"/>
<path d="M177.827 4225.21L143.24 4188.55L118.525 4211.87C106.58 4223.14 96.1502 4223.64 85.6572 4212.51L-76.4005 4040.75C-86.8935 4029.63 -85.7904 4019.25 -73.8453 4007.98L-49.1311 3984.66L-83.719 3948L-250.127 4105.01C-331.272 4181.57 -341.847 4242.15 -298.709 4287.87C-270.728 4317.53 -225.33 4326.86 -171.953 4295.96C-193.2 4337.81 -185.029 4373.7 -150.83 4409.95L-129.067 4433.01C-120.128 4442.49 -122.693 4448.02 -126.812 4451.91C-129.695 4454.63 -136.123 4455.24 -141.952 4449.06L-180.426 4408.29L-213.79 4439.76L-169.876 4486.31C-148.112 4509.38 -110.418 4508.07 -77.8774 4477.37C-36.6872 4438.5 -38.5395 4391.98 -66.5207 4362.32L-85.952 4341.73C-113.156 4312.89 -129.153 4284.39 -101.967 4258.74L-48.8317 4208.6L16.4578 4277.8C26.9507 4288.93 25.8476 4299.31 13.9025 4310.58L-10.8116 4333.9L23.7763 4370.56L177.827 4225.21ZM-83.0309 4172.36L-132.871 4219.38C-166.235 4250.86 -199.515 4251.9 -225.942 4223.89C-248.871 4199.58 -244.784 4169.26 -205.654 4132.34L-160.757 4089.98L-83.0309 4172.36Z" fill="white"/>
<path d="M77.6924 446.651C114.42 474.359 138.639 518.646 108.185 559.014C76.0996 601.545 23.1318 572.896 -31.9965 542.618C-117.753 496.02 -188.99 479.606 -238.478 545.204C-284.159 605.756 -258.03 672.975 -191.056 723.501C-140.646 761.531 -84.033 779.356 -29.8438 765.943C-40.7945 802.926 -31.184 844.11 9.14421 874.534C56.6738 910.391 107.203 912.315 143.095 864.738L184.97 809.232L138.16 773.918L96.2857 829.425C89.7598 838.075 81.0884 840.582 73.8869 835.149C68.1257 830.803 68.6993 821.055 74.6813 813.126L204.111 641.562C258.494 569.476 213.141 475.312 127.444 410.661C48.9479 351.443 -51.8744 330.807 -94.8364 387.754C-114.414 413.705 -111.476 453.249 -79.0695 477.697C-46.6629 502.145 -13.4173 491.029 3.44116 468.683C15.9491 452.103 14.0244 433.684 2.72293 412.716C26.8998 415.119 55.3679 429.809 77.6924 446.651ZM19.542 676.514C-11.9997 718.324 -62.9408 731.925 -110.47 696.068C-137.116 675.966 -142.259 648.333 -124.856 625.265C-98.753 590.664 -61.775 597.069 -25.8995 609.43C4.56756 619.972 34.8434 633.763 54.3467 630.379L19.542 676.514Z" fill="white"/>
<path d="M-30.3076 3231.12C6.4198 3258.83 30.6393 3303.11 0.185215 3343.48C-31.9004 3386.01 -84.8682 3357.36 -139.996 3327.09C-225.753 3280.49 -296.99 3264.07 -346.478 3329.67C-392.159 3390.22 -366.03 3457.44 -299.056 3507.97C-248.646 3546 -192.033 3563.82 -137.844 3550.41C-148.795 3587.39 -139.184 3628.58 -98.8558 3659C-51.3262 3694.86 -0.797142 3696.78 35.0952 3649.21L76.9696 3593.7L30.1601 3558.39L-11.7143 3613.89C-18.2402 3622.54 -26.9116 3625.05 -34.1131 3619.62C-39.8743 3615.27 -39.3007 3605.52 -33.3187 3597.59L96.1112 3426.03C150.494 3353.94 105.141 3259.78 19.4438 3195.13C-59.0521 3135.91 -159.874 3115.27 -202.836 3172.22C-222.414 3198.17 -219.476 3237.72 -187.069 3262.16C-154.663 3286.61 -121.417 3275.5 -104.559 3253.15C-92.0509 3236.57 -93.9756 3218.15 -105.277 3197.18C-81.1002 3199.59 -52.6321 3214.28 -30.3076 3231.12ZM-88.458 3460.98C-120 3502.79 -170.941 3516.39 -218.47 3480.54C-245.116 3460.43 -250.259 3432.8 -232.856 3409.73C-206.753 3375.13 -169.775 3381.54 -133.899 3393.9C-103.432 3404.44 -73.1566 3418.23 -53.6533 3414.85L-88.458 3460.98Z" fill="white"/>
<path d="M17.6924 4647.12C54.4198 4674.83 78.6393 4719.11 48.1852 4759.48C16.0996 4802.01 -36.8682 4773.36 -91.9965 4743.09C-177.753 4696.49 -248.99 4680.07 -298.478 4745.67C-344.159 4806.22 -318.03 4873.44 -251.056 4923.97C-200.646 4962 -144.033 4979.82 -89.8438 4966.41C-100.795 5003.39 -91.184 5044.58 -50.8558 5075C-3.32618 5110.86 47.2029 5112.78 83.0952 5065.21L124.97 5009.7L78.1601 4974.39L36.2857 5029.89C29.7598 5038.54 21.0884 5041.05 13.8869 5035.62C8.12575 5031.27 8.69927 5021.52 14.6813 5013.59L144.111 4842.03C198.494 4769.94 153.141 4675.78 67.4438 4611.13C-11.0521 4551.91 -111.874 4531.27 -154.836 4588.22C-174.414 4614.17 -171.476 4653.72 -139.069 4678.16C-106.663 4702.61 -73.4173 4691.5 -56.5588 4669.15C-44.0509 4652.57 -45.9756 4634.15 -57.2771 4613.18C-33.1002 4615.59 -4.63214 4630.28 17.6924 4647.12ZM-40.458 4876.98C-71.9997 4918.79 -122.941 4932.39 -170.47 4896.54C-197.116 4876.43 -202.259 4848.8 -184.856 4825.73C-158.753 4791.13 -121.775 4797.54 -85.8995 4809.9C-55.4324 4820.44 -25.1566 4834.23 -5.65327 4830.85L-40.458 4876.98Z" fill="white"/>
<path d="M66.6591 2862.11C25.7452 2889.91 -27.716 2899.23 -58.2659 2854.26C-90.4524 2806.88 -42.9604 2762.88 6.9384 2717.25C84.0488 2646.09 125.411 2579.26 75.7679 2506.18C29.943 2438.73 -47.5214 2442.06 -122.129 2492.74C-178.285 2530.89 -216.022 2582.35 -221.124 2642.15C-254.979 2618.2 -300.225 2613.73 -345.15 2644.25C-398.097 2680.22 -417.543 2730.99 -381.538 2783.99L-339.532 2845.82L-287.386 2810.4L-329.393 2748.56C-335.939 2738.93 -335.49 2729.23 -327.468 2723.78C-321.05 2719.42 -311.327 2723.38 -305.326 2732.21L-175.488 2923.34C-120.935 3003.64 -9.39161 2990.06 86.0742 2925.21C173.518 2865.8 229.417 2770.32 186.319 2706.88C166.68 2677.97 125.413 2667.28 89.3122 2691.8C53.2116 2716.33 53.0196 2754.02 69.9312 2778.91C82.4785 2797.38 101.893 2801.79 127.147 2797.55C116.333 2821.32 91.5284 2845.22 66.6591 2862.11ZM-147.188 2723.37C-178.829 2676.79 -175.043 2620.23 -122.096 2584.27C-92.4131 2564.1 -62.5056 2568.43 -45.0485 2594.13C-18.8628 2632.67 -38.1803 2668.09 -63.1777 2700.33C-84.4527 2727.7 -108.969 2753.74 -112.274 2774.76L-147.188 2723.37Z" fill="white"/>
<path d="M1602.69 1491.12C1639.42 1518.83 1663.64 1563.11 1633.18 1603.48C1601.1 1646.01 1548.13 1617.36 1493 1587.09C1407.25 1540.49 1336.01 1524.07 1286.52 1589.67C1240.84 1650.22 1266.97 1717.44 1333.94 1767.97C1384.35 1806 1440.97 1823.82 1495.16 1810.41C1484.21 1847.39 1493.82 1888.58 1534.14 1919C1581.67 1954.86 1632.2 1956.78 1668.09 1909.21L1709.97 1853.7L1663.16 1818.39L1621.29 1873.89C1614.76 1882.54 1606.09 1885.05 1598.89 1879.62C1593.13 1875.27 1593.7 1865.52 1599.68 1857.59L1729.11 1686.03C1783.49 1613.94 1738.14 1519.78 1652.44 1455.13C1573.95 1395.91 1473.13 1375.27 1430.16 1432.22C1410.59 1458.17 1413.52 1497.72 1445.93 1522.16C1478.34 1546.61 1511.58 1535.5 1528.44 1513.15C1540.95 1496.57 1539.02 1478.15 1527.72 1457.18C1551.9 1459.59 1580.37 1474.28 1602.69 1491.12ZM1544.54 1720.98C1513 1762.79 1462.06 1776.39 1414.53 1740.54C1387.88 1720.43 1382.74 1692.8 1400.14 1669.73C1426.25 1635.13 1463.22 1641.54 1499.1 1653.9C1529.57 1664.44 1559.84 1678.23 1579.35 1674.85L1544.54 1720.98Z" fill="white"/>
<path d="M1404.47 523.061C1447.52 511.737 1504.62 486.754 1530.61 463.059C1550.36 444.834 1555.2 428.234 1551.55 379.379C1484.03 420.133 1436.86 433.306 1392.38 445.007C1328.53 461.804 1302.44 461.77 1213.44 467.555L1270.1 735.441L1322.4 730.114C1343.74 694.611 1371.01 672.877 1412.62 661.93C1469.3 647.02 1525.97 675.798 1542.56 738.874C1561.79 811.984 1528.4 862.919 1468.85 878.584C1420.06 891.418 1402.58 889.119 1381.25 880.936C1394.28 872.144 1415.84 854.975 1405.66 816.269C1398.31 788.315 1364.29 772.739 1329.14 781.987C1315.51 785.573 1264.79 802.746 1280.25 861.521C1299.67 935.348 1406.79 954.687 1500.06 930.152C1619.87 898.633 1684.13 795.896 1660.37 705.582C1646.61 653.258 1582.3 557.518 1418.72 600.549C1376.39 611.684 1339.27 636.777 1316.22 665.83L1290.93 537.602C1325.67 538.427 1370.75 531.932 1404.47 523.061Z" fill="white"/>
<path d="M-116.823 1199.88C-78.9954 1176.42 -31.7447 1135.78 -13.8588 1105.5C-0.324459 1082.28 -0.571365 1064.99 -18.3966 1019.36C-70.9854 1078.14 -112.206 1104.57 -151.295 1128.82C-207.406 1163.62 -232.358 1171.24 -315.738 1202.89L-182.945 1442.35L-134.515 1421.91C-124.531 1381.7 -104.843 1352.92 -68.2754 1330.24C-18.4685 1299.36 44.1472 1310.23 78.5224 1365.66C118.366 1429.91 101.392 1488.4 49.0634 1520.85C6.19158 1547.44 -11.1943 1550.37 -33.9873 1548.81C-24.1124 1536.58 -8.53588 1513.84 -29.6297 1479.83C-44.8642 1455.26 -81.9524 1450.36 -112.845 1469.52C-124.824 1476.95 -168.265 1508.25 -136.233 1559.9C-95.9989 1624.77 12.0722 1611.82 94.033 1560.99C199.321 1495.69 230.597 1378.62 181.378 1299.26C152.862 1253.28 63.286 1180.63 -80.4607 1269.78C-117.658 1292.85 -145.782 1327.73 -159.282 1362.27L-221.098 1247.11C-187.648 1237.7 -146.455 1218.26 -116.823 1199.88Z" fill="white"/>
<path d="M1403.18 3537.88C1441 3514.42 1488.26 3473.78 1506.14 3443.5C1519.68 3420.28 1519.43 3402.99 1501.6 3357.36C1449.01 3416.14 1407.79 3442.57 1368.71 3466.82C1312.59 3501.62 1287.64 3509.24 1204.26 3540.89L1337.06 3780.35L1385.48 3759.91C1395.47 3719.7 1415.16 3690.92 1451.72 3668.24C1501.53 3637.35 1564.15 3648.23 1598.52 3703.66C1638.37 3767.91 1621.39 3826.4 1569.06 3858.85C1526.19 3885.44 1508.81 3888.37 1486.01 3886.81C1495.89 3874.58 1511.46 3851.84 1490.37 3817.83C1475.14 3793.26 1438.05 3788.36 1407.15 3807.52C1395.18 3814.95 1351.74 3846.25 1383.77 3897.9C1424 3962.77 1532.07 3949.82 1614.03 3898.99C1719.32 3833.69 1750.6 3716.62 1701.38 3637.26C1672.86 3591.28 1583.29 3518.63 1439.54 3607.78C1402.34 3630.85 1374.22 3665.73 1360.72 3700.27L1298.9 3585.11C1332.35 3575.7 1373.54 3556.26 1403.18 3537.88Z" fill="white"/>
<path d="M1446.25 4533.86C1488.36 4519.45 1543.5 4490.4 1567.7 4464.88C1586.09 4445.28 1589.71 4428.37 1582.54 4379.91C1518.14 4425.44 1472.05 4441.99 1428.53 4456.88C1366.06 4478.26 1340.04 4480.11 1251.69 4492.32L1327.59 4755.4L1379.37 4746.31C1398.09 4709.35 1423.71 4685.7 1464.42 4671.77C1519.87 4652.8 1578.47 4677.4 1599.59 4739.11C1624.06 4810.64 1594.44 4863.85 1536.18 4883.79C1488.45 4900.12 1470.85 4899.09 1448.98 4892.47C1461.34 4882.76 1481.6 4864.08 1468.65 4826.21C1459.29 4798.86 1424.24 4785.79 1389.84 4797.56C1376.51 4802.12 1327.17 4822.92 1346.84 4880.42C1371.56 4952.65 1479.79 4964.18 1571.04 4932.96C1688.26 4892.85 1744.92 4785.74 1714.68 4697.38C1697.17 4646.19 1626.1 4555.35 1466.06 4610.11C1424.65 4624.28 1389.44 4651.99 1368.56 4682.64L1334.05 4556.58C1368.76 4554.89 1413.25 4545.14 1446.25 4533.86Z" fill="white"/>
</g>
</g>
<defs>
<clipPath id="clip0">
<rect width="1440" height="5439" fill="white"/>
</clipPath>
</defs>
</svg>
